<svg xmlns="http://www.w3.org/2000/svg" version="1.1" xmlns:xlink="http://www.w3.org/1999/xlink" xmlns:svgjs="http://svgjs.dev/svgjs" width="100%" height="100%" viewBox="0 0 1000 600"><rect width="1000" height="600" x="0" y="0" fill="#f4efea"/><g><rect width="333.3333333333333" height="333.3333333333333" rx="13.333333333333334" ry="13.333333333333334" y="77.77777014838344" fill="#7d141d" transform="matrix(2.2499999313354513,0,0,2.2499999313354517,0,-249.99999084472722)" x="55.55555725097656"/><path d="M117.64778412306866 316.35990044243874L92.37169904253693 316.35990044243874L148.2932522489563 172.41473794991913L173.2837318483521 172.41473794991913L230.66187300856478 316.35990044243874L204.6432136770796 316.35990044243874L191.36255880425784 282.0301216098974L130.4143491298457 282.0301216098974L117.64778412306866 316.35990044243874ZM160.31724300477987 199.46157701349372L136.3549431374735 262.18054067094874L185.19348041172125 262.18054067094874L160.31724300477987 199.46157701349372ZM298.4074931340126 319.4444396387071L298.4074931340126 319.4444396387071Q283.4988870187159 319.4444396387071 269.24717351003187 315.1889179697814Q255.02402054946148 310.9048357527421 245.25631309461193 302.87932173282184L245.25631309461193 302.87932173282184L256.5662901475956 285.31458464296077Q261.70718880804276 289.74146960056805 268.53315980719196 292.91169044117714Q275.3876913544549 296.1104718298998 283.09903934512556 297.79554416860185Q290.81038733579624 299.5091770554176 298.5217353264669 299.5091770554176L298.5217353264669 299.5091770554176Q312.60208554646937 299.5091770554176 321.28449217300226 294.1397940100617Q329.9668987995352 288.79897151281943 329.9668987995352 278.51717419192516L329.9668987995352 278.51717419192516Q329.9668987995352 270.8058262012545 324.054865340021 265.46500370401213Q318.14283188050683 260.1241812067699 302.20604603312074 255.58305405670822L302.20604603312074 255.58305405670822L287.4116821102784 251.27041129155535Q267.04801130528506 245.41549892826836 257.737272620253 235.7620336658732Q248.426533935221 226.0800078553644 248.426533935221 211.68549160611244L248.426533935221 211.68549160611244Q248.426533935221 202.11770798805807 252.28220793055632 194.4063599973874Q256.1378819258917 186.69501200671667 263.1923373099497 181.04002348022482Q270.2467926940077 175.385034953733 279.7860157639485 172.41473794991913Q289.3537993820029 169.4444409461052 300.77801862744093 169.4444409461052L300.77801862744093 169.4444409461052Q315.25821652103366 169.4444409461052 327.7106154985612 173.64284151880372Q340.1630144760887 177.86980263961578 348.27421014034974 184.9528185717874L348.27421014034974 184.9528185717874L336.56438541377577 202.03202634371726Q332.1375004561684 198.00498905970036 326.22546699665423 195.14893424834085Q320.31343353714004 192.26431888886773 313.5160230861044 190.72204929073362Q306.7471731831823 189.17977969259945 299.74983889535156 189.17977969259945L299.74983889535156 189.17977969259945Q291.0959928169322 189.17977969259945 284.46994565457805 191.69310792659584Q277.843898492224 194.20643616059223 274.1310272374567 198.94748714744904Q270.44671653080286 203.65997758619218 270.44671653080286 210.45738803722784L270.44671653080286 210.45738803722784Q270.44671653080286 215.3983628608798 272.90292366857204 219.0826735675336Q275.3876913544549 222.79554482230097 281.38540645830983 225.82296292234204Q287.4116821102784 228.85038102238317 298.0076454604222 231.93492021865146L298.0076454604222 231.93492021865146L313.6302652785588 236.56172901305385Q333.5655278618482 242.44520192445444 342.8191454506531 251.8416222538273Q352.07276303945787 261.2380425832001 352.07276303945787 276.26089089095115L352.07276303945787 276.26089089095115Q352.07276303945787 289.113137542069 345.76088190635335 298.82372390069133Q339.4204402251352 308.53431025931366 327.3964494693116 313.9893749490103Q315.3724587134881 319.4444396387071 298.4074931340126 319.4444396387071Z " fill="#f4efea" transform="matrix(2.2499999313354513,0,0,2.2499999313354517,0,-249.99999084472722)"/><path d="MNaN 244.44444105360233 " fill="#7d141d" transform="matrix(2.2499999313354513,0,0,2.2499999313354517,0,-249.99999084472722)"/></g></svg>